<svg width="18" height="18" viewBox="0 0 18 18" fill="none" xmlns="http://www.w3.org/2000/svg">
<path d="M8.98983 17.8809C8.86457 17.8809 8.7393 17.8469 8.62846 17.779C3.62895 14.7141 1.12741 10.4664 0.980213 4.79314C0.973495 4.53352 1.11279 4.29208 1.34079 4.1678L8.65909 0.183045C8.86536 0.0708209 9.1145 0.0708209 9.32058 0.183045L16.6389 4.1678C16.8669 4.29188 17.0062 4.53352 16.9995 4.79314C16.8523 10.4662 14.3505 14.7139 9.3512 17.779C9.24056 17.8469 9.1151 17.8809 8.98983 17.8809ZM2.37867 5.17762C2.61655 9.99971 4.78339 13.6691 8.98983 16.373C13.1961 13.6689 15.3631 9.99991 15.601 5.17762L8.98983 1.57775L2.37867 5.17762Z" fill="#51D5EB"/>
<path d="M8.65318 11.3237C8.4803 11.3237 8.31592 11.2482 8.2033 11.1166L6.07005 8.62833C5.85686 8.37977 5.88571 8.00576 6.13426 7.79277C6.38281 7.57958 6.75683 7.60823 6.97002 7.85698L8.63916 9.80392L10.9978 6.87719C11.2033 6.62212 11.5766 6.58201 11.8314 6.78769C12.0863 6.99317 12.1264 7.36639 11.9209 7.62127L9.11473 11.1028C9.00408 11.2399 8.83831 11.3209 8.66208 11.3235C8.65911 11.3237 8.65615 11.3237 8.65318 11.3237Z" fill="#51D5EB"/>
</svg>
