<svg width="562" height="187" viewBox="0 0 562 187" fill="none" xmlns="http://www.w3.org/2000/svg">
<path d="M52.7986 184V39.9851H0.539035V15.4207H133.958V39.9851H81.6979V184H52.7986ZM210.928 39.7443C205.47 39.7443 200.814 37.8176 196.96 33.9644C193.268 30.1112 191.421 25.5354 191.421 20.2372C191.421 14.939 193.268 10.4436 196.96 6.75088C200.814 2.89764 205.47 0.971019 210.928 0.971019C216.226 0.971019 220.722 2.89764 224.415 6.75088C228.268 10.4436 230.194 14.939 230.194 20.2372C230.194 25.5354 228.268 30.1112 224.415 33.9644C220.722 37.8176 216.226 39.7443 210.928 39.7443ZM241.754 186.408C227.144 186.408 216.066 182.956 208.52 176.053C200.974 169.149 197.201 158.954 197.201 145.468V85.0199H153.852V63.3454H224.415V142.578C224.415 149.802 226.1 155.02 229.472 158.231C233.004 161.442 238.302 163.048 245.367 163.048C249.38 163.048 253.314 162.647 257.167 161.844C261.02 161.041 265.275 159.757 269.931 157.991V180.869C266.238 182.314 261.823 183.599 256.686 184.722C251.548 185.846 246.571 186.408 241.754 186.408ZM349.069 185.686C338.954 185.686 329.723 182.956 321.374 177.498C313.186 172.039 306.603 164.654 301.626 155.342C296.81 145.869 294.401 135.353 294.401 123.793C294.401 112.073 296.89 101.557 301.867 92.2447C306.844 82.9327 313.507 75.5473 321.856 70.0885C330.204 64.4692 339.436 61.6596 349.551 61.6596C356.134 61.6596 362.154 62.944 367.613 65.5128C373.232 68.0817 378.209 71.6941 382.544 76.3501V11.0858L409.758 6.51005V184H383.267V170.032C378.932 175.17 373.874 179.103 368.095 181.833C362.315 184.401 355.973 185.686 349.069 185.686ZM355.572 163.289C361.03 163.289 366.088 162.245 370.744 160.158C375.4 158.071 379.333 155.101 382.544 151.247V96.3388C379.333 92.4855 375.319 89.5153 370.503 87.4281C365.847 85.1804 360.87 84.0565 355.572 84.0565C348.828 84.0565 342.888 85.7423 337.75 89.1139C332.613 92.4855 328.599 97.1415 325.709 103.082C322.819 109.022 321.374 115.926 321.374 123.793C321.374 131.339 322.819 138.162 325.709 144.263C328.599 150.204 332.613 154.86 337.75 158.231C342.888 161.603 348.828 163.289 355.572 163.289ZM503.587 186.408C491.866 186.408 481.27 183.679 471.797 178.22C462.325 172.601 454.779 165.055 449.159 155.582C443.701 146.11 440.971 135.513 440.971 123.793C440.971 111.912 443.54 101.316 448.678 92.0039C453.976 82.6919 461.121 75.3065 470.111 69.8477C479.263 64.2284 489.458 61.4188 500.697 61.4188C512.417 61.4188 522.772 64.1481 531.763 69.6069C540.915 75.0656 548.059 82.451 553.197 91.763C558.495 101.075 561.144 111.752 561.144 123.793V130.295H467.703C468.506 136.878 470.593 142.738 473.965 147.876C477.497 152.853 481.912 156.786 487.21 159.676C492.669 162.566 498.609 164.011 505.031 164.011C511.293 164.011 517.073 162.807 522.371 160.399C527.83 157.991 532.325 154.619 535.857 150.284L553.919 166.42C547.016 173.323 539.39 178.381 531.041 181.592C522.692 184.803 513.541 186.408 503.587 186.408ZM467.944 113.197H535.135C534.172 107.256 532.084 102.119 528.873 97.7837C525.823 93.2883 521.889 89.8364 517.073 87.4281C512.417 84.8593 507.119 83.5749 501.178 83.5749C495.559 83.5749 490.421 84.779 485.765 87.1873C481.27 89.5956 477.497 93.0474 474.446 97.5429C471.396 101.878 469.228 107.096 467.944 113.197Z" fill="#51D5EB"/>
</svg>
